<svg width="912" height="207" viewBox="0 0 912 207" fill="none" xmlns="http://www.w3.org/2000/svg">
<path d="M822.307 72.1696C821.812 72.1696 820.821 72.1696 820.326 71.6745C819.336 70.6842 819.336 69.1988 820.326 68.2086C821.316 67.2183 822.307 66.2281 823.792 64.7427C824.782 63.7524 826.267 63.7524 827.257 64.7427C828.247 65.7329 828.247 67.2183 827.257 68.2086C826.267 69.1988 824.782 70.6842 823.792 71.6745C823.792 71.6745 822.802 72.1696 822.307 72.1696Z" fill="#424069"/>
<path d="M163.864 191C160.399 191 157.429 191 153.963 190.505C152.478 190.505 151.488 189.515 151.488 188.029C151.488 186.544 152.973 185.554 153.963 185.554C157.429 185.554 160.399 185.554 163.369 186.049C164.855 186.049 165.845 187.039 165.845 188.524C166.34 190.01 165.35 191 163.864 191ZM189.113 191C187.628 191 186.638 190.01 186.638 188.524C186.638 187.039 187.628 186.049 189.113 186.049C192.578 186.049 195.549 186.049 198.519 185.554C200.004 185.554 200.995 186.544 200.995 188.029C200.995 189.515 200.004 190.505 198.519 190.505C195.549 190.505 192.578 191 189.113 191ZM129.21 189.019C129.21 189.019 128.715 189.019 129.21 189.019C125.744 189.019 122.774 188.524 119.308 188.524C117.823 188.524 116.833 187.039 116.833 186.049C116.833 185.058 118.318 183.573 119.308 183.573C122.774 184.068 125.744 184.068 128.715 184.068C130.2 184.068 131.19 185.554 131.19 186.544C131.19 188.029 130.2 189.019 129.21 189.019ZM223.768 188.029C222.778 188.029 221.292 187.039 221.292 186.049C221.292 184.563 221.788 183.573 223.273 183.078C226.243 182.583 229.709 182.088 232.679 181.593C234.164 181.097 235.154 182.088 235.649 183.573C236.145 185.058 235.154 186.049 233.669 186.544C230.699 187.039 227.233 187.534 223.768 188.029ZM257.928 180.107C256.937 180.107 255.947 179.612 255.452 178.127C254.957 176.641 255.947 175.651 256.937 175.156C259.908 174.166 262.878 173.175 265.849 172.185C267.334 171.69 268.324 172.68 268.819 173.671C269.314 175.156 268.324 176.146 267.334 176.641C264.363 177.632 260.898 178.622 257.928 179.612C258.423 180.107 257.928 180.107 257.928 180.107ZM290.602 168.719C289.612 168.719 288.622 168.224 288.127 167.234C287.632 165.749 288.127 164.758 289.612 164.263C292.582 163.273 295.553 161.787 298.523 160.797C300.008 160.302 300.999 160.797 301.989 162.283C302.484 163.768 301.989 164.758 300.504 165.749C297.533 167.234 294.563 168.224 291.592 169.214C291.097 168.719 291.097 168.719 290.602 168.719ZM322.782 155.351C321.791 155.351 320.801 154.856 320.306 153.865C319.811 152.38 320.306 151.39 321.791 150.4L330.703 146.439C332.188 145.943 333.178 146.439 334.168 147.924C334.663 149.409 334.168 150.4 332.683 151.39L323.772 155.351C323.277 155.351 322.782 155.351 322.782 155.351ZM354.961 141.487C353.971 141.487 352.981 140.992 352.486 140.002C351.991 138.517 352.486 137.526 353.971 136.536L362.882 132.575C364.367 132.08 365.358 132.575 366.348 134.06C366.843 135.546 366.348 136.536 364.863 137.526L355.951 141.487C355.456 141.487 354.961 141.487 354.961 141.487ZM666.36 130.099H662.894C661.409 130.099 660.419 129.109 660.419 127.624C660.419 126.138 661.409 125.148 662.894 125.148H666.36C668.34 125.148 670.32 125.148 672.795 125.148C674.281 125.148 675.271 126.138 675.271 127.624C675.271 129.109 674.281 130.099 672.795 130.099C670.815 130.099 668.835 130.099 666.36 130.099ZM638.141 129.109C638.141 129.109 637.646 129.109 638.141 129.109C634.675 129.109 631.705 128.614 628.239 128.614C626.754 128.614 625.764 127.129 625.764 126.138C625.764 125.148 627.249 123.663 628.239 123.663C631.21 124.158 634.675 124.158 637.646 124.158C639.131 124.158 640.121 125.643 640.121 126.633C640.121 128.119 639.131 129.109 638.141 129.109ZM698.044 128.614C696.559 128.614 695.569 127.624 695.569 126.138C695.569 124.653 696.559 123.663 697.549 123.663C700.519 123.168 703.985 123.168 706.955 122.672C708.44 122.672 709.431 123.663 709.926 124.653C710.421 125.643 708.935 127.129 707.945 127.624C704.975 128.119 701.509 128.614 698.044 128.614ZM387.141 128.119C386.15 128.119 385.16 127.624 384.665 126.633C384.17 125.148 384.665 124.158 386.15 123.168C389.121 122.177 392.091 120.692 395.062 119.702C396.547 119.207 397.537 119.702 398.032 121.187C398.527 122.672 398.032 123.663 396.547 124.158C393.577 125.148 390.606 126.633 387.636 127.624C387.636 128.119 387.141 128.119 387.141 128.119ZM602.991 126.138C599.525 125.643 596.06 125.148 593.089 125.148C591.604 125.148 590.614 123.663 591.109 122.177C591.109 120.692 592.594 119.702 594.079 120.197C597.05 120.692 600.515 121.187 603.486 121.187C604.971 121.187 605.961 122.672 605.466 124.158C605.466 125.148 604.476 126.138 602.991 126.138ZM732.204 123.168C731.214 123.168 730.223 122.177 729.728 121.187C729.233 119.702 730.224 118.711 731.709 118.216C734.679 117.226 737.649 116.731 741.115 115.741C742.6 115.246 743.59 116.236 744.085 117.226C744.581 118.711 743.59 119.702 742.6 120.197C739.63 121.187 736.164 122.177 733.194 122.672C732.699 122.672 732.699 123.168 732.204 123.168ZM568.336 121.682L558.435 120.197C556.949 120.197 555.959 118.711 556.454 117.226C556.454 115.741 557.939 114.75 559.425 115.246L568.831 116.731C570.316 116.731 571.306 118.216 570.811 119.702C570.811 120.692 569.821 121.682 568.336 121.682ZM534.176 117.226C533.681 117.226 533.681 117.226 534.176 117.226C530.711 116.731 527.245 116.236 524.275 116.236C522.79 116.236 521.799 114.75 522.294 113.265C522.294 111.78 523.78 110.789 525.265 111.285C528.235 111.78 531.701 111.78 535.166 112.275C536.651 112.275 537.642 113.76 537.147 115.246C536.156 116.236 535.166 117.226 534.176 117.226ZM420.31 117.226C419.32 117.226 418.33 116.236 417.835 115.246C417.34 113.76 418.33 112.77 419.815 112.275C422.786 111.78 426.251 110.789 429.717 110.294C431.202 110.294 432.192 110.789 432.687 112.275C432.687 113.76 432.192 114.75 430.707 115.246C427.736 115.741 424.271 116.236 421.3 117.226C420.31 117.226 420.31 117.226 420.31 117.226ZM499.026 113.76C495.561 113.265 492.59 113.265 489.125 113.265C487.64 113.265 486.65 111.78 486.65 110.789C486.65 109.304 488.135 108.314 489.125 108.314C492.59 108.314 495.561 108.809 499.026 108.809C500.511 108.809 501.502 110.294 501.502 111.285C501.502 112.77 500.511 113.76 499.026 113.76ZM454.47 112.77C452.985 112.77 451.995 111.78 451.995 110.294C451.995 108.809 452.985 107.819 454.47 107.819C457.935 107.819 460.906 107.324 464.371 107.324C465.857 107.324 466.847 108.314 466.847 109.799C466.847 111.285 465.857 112.275 464.371 112.275C461.401 112.77 457.935 112.77 454.47 112.77C454.965 112.77 454.47 112.77 454.47 112.77ZM765.373 111.78C764.383 111.78 763.393 111.285 762.898 110.294C762.403 108.809 762.898 107.819 764.383 106.828C767.354 105.343 770.324 104.353 772.799 102.867C773.79 102.372 775.275 102.867 776.265 103.858C777.255 104.848 776.265 106.333 775.275 107.324C772.304 108.809 769.334 110.294 766.364 111.78C765.868 111.78 765.868 111.78 765.373 111.78ZM795.573 94.4502C794.582 94.4502 794.087 93.9551 793.592 93.4599C792.602 92.4697 793.097 90.9843 794.087 89.994C796.563 88.0135 799.038 86.5282 802.008 84.5476C802.999 83.5574 804.484 84.0525 805.474 85.0428C806.464 86.033 805.969 87.5184 804.979 88.5087C802.504 90.4892 799.533 92.4697 797.058 94.4502C796.563 94.4502 796.068 94.4502 795.573 94.4502Z" fill="#424069"/>
<path d="M94.0597 186.049C93.5647 186.049 93.5647 186.049 94.0597 186.049L89.1091 185.554C87.6239 185.554 86.6337 184.068 87.1288 183.078C87.1288 181.593 88.614 180.602 89.6041 181.097L94.5548 181.593C95.545 181.593 96.5351 182.583 96.5351 184.068C96.04 185.058 95.0499 186.049 94.0597 186.049Z" fill="#424069"/>
<g filter="url(#filter0_d)">
<path d="M853.395 111.703C879.423 111.703 900.523 90.727 900.523 64.8516C900.523 38.9762 879.423 18 853.395 18C827.367 18 806.267 38.9762 806.267 64.8516C806.267 90.727 827.367 111.703 853.395 111.703Z" fill="#FFD15C"/>
<path d="M815.216 92.261L799 120.205L817.926 119.206L826.525 136L841.525 110.147C830.777 107.383 821.548 100.948 815.216 92.261Z" fill="#57BF96"/>
<path d="M891.668 92.1216C885.382 100.832 876.153 107.29 865.428 110.1L880.475 136L889.074 119.206L908 120.205L891.668 92.1216Z" fill="#57BF96"/>
<path d="M853.395 98.8114C872.261 98.8114 887.555 83.6071 887.555 64.8516C887.555 46.0961 872.261 30.8917 853.395 30.8917C834.529 30.8917 819.234 46.0961 819.234 64.8516C819.234 83.6071 834.529 98.8114 853.395 98.8114Z" fill="#F8B64C"/>
<path d="M876.807 61.1815C877.859 60.1594 877.274 58.3708 875.826 58.1618L862.344 56.2106C861.76 56.1177 861.269 55.7693 861.012 55.235L854.984 43.0866C854.329 41.7626 852.437 41.7626 851.783 43.0866L845.778 55.235C845.521 55.746 845.007 56.1177 844.446 56.2106L830.964 58.1618C829.515 58.3708 828.931 60.1594 829.983 61.1815L839.726 70.6354C840.147 71.0535 840.334 71.6342 840.24 72.1917L837.95 85.5248C837.693 86.9649 839.235 88.0799 840.544 87.383L852.6 81.0882C853.114 80.8094 853.745 80.8094 854.259 81.0882L866.316 87.383C867.624 88.0567 869.143 86.9649 868.91 85.5248L866.596 72.1917C866.503 71.611 866.69 71.0303 867.11 70.6354L876.807 61.1815Z" fill="white"/>
</g>
<path d="M686 151.8C701.85 151.8 714.7 138.951 714.7 123.1C714.7 107.25 701.85 94.4001 686 94.4001C670.149 94.4001 657.3 107.25 657.3 123.1C657.3 138.951 670.149 151.8 686 151.8Z" fill="#57BF96"/>
<path d="M685.7 94.0027C693.2 94.1027 700.8 97.0027 706.3 102.303C709.1 104.903 711.3 108.103 712.9 111.603C714.5 115.103 715.3 119.003 715.4 122.903C715.5 130.703 712.4 138.503 706.9 144.103C701.4 149.703 693.6 153.103 685.7 153.203C677.7 153.203 669.8 150.103 664 144.503C661.1 141.703 658.8 138.303 657.3 134.603C655.7 130.903 655 126.803 655 122.803C655.1 118.803 656 114.803 657.6 111.203C659.3 107.603 661.7 104.403 664.6 101.803C670.4 96.6027 678.1 93.9027 685.7 94.0027ZM685.7 94.4027C682 94.5027 678.3 95.3027 674.9 96.8027C671.6 98.4027 668.6 100.603 666.2 103.303C661.3 108.703 658.9 115.903 659 122.803C659.1 129.803 661.9 136.703 666.8 141.703C669.2 144.203 672.2 146.303 675.4 147.703C678.6 149.103 682.1 149.803 685.7 149.903C692.8 150.003 699.9 147.203 705 142.203C710.2 137.203 713.2 130.103 713.3 122.803C713.5 115.503 710.7 108.203 705.6 102.803C703 100.103 699.9 97.9027 696.5 96.5027C693.1 95.1027 689.4 94.3027 685.7 94.4027Z" fill="#424069"/>
<path d="M699.602 110.765C698.159 110.047 696.544 111.433 695.6 112.243C693.431 114.188 691.598 116.434 689.547 118.479C687.269 120.725 685.164 122.979 682.822 125.175C681.488 126.402 680.045 127.729 679.156 129.265C677.159 127.479 675.435 125.533 673.212 123.956C671.614 122.82 668.946 122.002 669.001 124.707C669.11 128.23 672.504 132.012 675 134.416C676.052 135.435 677.441 136.512 679.056 136.562C680.998 136.662 683.004 134.516 684.165 133.339C686.216 131.294 687.886 128.998 689.774 126.903C692.215 124.148 694.72 121.434 697.107 118.629C698.604 116.893 703.323 112.602 699.602 110.765Z" fill="white"/>
<path d="M443 137.8C458.85 137.8 471.7 124.951 471.7 109.1C471.7 93.2496 458.85 80.4001 443 80.4001C427.149 80.4001 414.3 93.2496 414.3 109.1C414.3 124.951 427.149 137.8 443 137.8Z" fill="#57BF96"/>
<path d="M442.7 80.0027C450.2 80.1027 457.8 83.0027 463.3 88.3027C466.1 90.9027 468.3 94.1027 469.9 97.6027C471.5 101.103 472.3 105.003 472.4 108.903C472.5 116.703 469.4 124.503 463.9 130.103C458.4 135.703 450.6 139.103 442.7 139.203C434.7 139.203 426.8 136.103 421 130.503C418.1 127.703 415.8 124.303 414.3 120.603C412.7 116.903 412 112.803 412 108.803C412.1 104.803 413 100.803 414.6 97.2027C416.3 93.6027 418.7 90.4027 421.6 87.8027C427.4 82.6027 435.1 79.9027 442.7 80.0027ZM442.7 80.4027C439 80.5027 435.3 81.3027 431.9 82.8027C428.6 84.4027 425.6 86.6027 423.2 89.3027C418.3 94.7027 415.9 101.903 416 108.803C416.1 115.803 418.9 122.703 423.8 127.703C426.2 130.203 429.2 132.303 432.4 133.703C435.6 135.103 439.1 135.803 442.7 135.903C449.8 136.003 456.9 133.203 462 128.203C467.2 123.203 470.2 116.103 470.3 108.803C470.5 101.503 467.7 94.2027 462.6 88.8027C460 86.1027 456.9 83.9027 453.5 82.5027C450.1 81.1027 446.4 80.3027 442.7 80.4027Z" fill="#424069"/>
<path d="M456.602 96.7651C455.159 96.0471 453.544 97.433 452.6 98.2428C450.431 100.188 448.598 102.434 446.547 104.479C444.269 106.725 442.164 108.979 439.822 111.175C438.488 112.402 437.045 113.729 436.156 115.265C434.159 113.479 432.435 111.533 430.212 109.956C428.614 108.82 425.946 108.002 426.001 110.707C426.11 114.23 429.504 118.012 432 120.416C433.052 121.435 434.441 122.512 436.056 122.562C437.998 122.662 440.004 120.516 441.165 119.339C443.216 117.294 444.886 114.998 446.774 112.903C449.215 110.148 451.72 107.434 454.107 104.629C455.604 102.893 460.323 98.6017 456.602 96.7651Z" fill="white"/>
<path d="M246 204.8C261.85 204.8 274.7 191.951 274.7 176.1C274.7 160.25 261.85 147.4 246 147.4C230.149 147.4 217.3 160.25 217.3 176.1C217.3 191.951 230.149 204.8 246 204.8Z" fill="#57BF96"/>
<path d="M245.7 147.003C253.2 147.103 260.8 150.003 266.3 155.303C269.1 157.903 271.3 161.103 272.9 164.603C274.5 168.103 275.3 172.003 275.4 175.903C275.5 183.703 272.4 191.503 266.9 197.103C261.4 202.703 253.6 206.103 245.7 206.203C237.7 206.203 229.8 203.103 224 197.503C221.1 194.703 218.8 191.303 217.3 187.603C215.7 183.903 215 179.803 215 175.803C215.1 171.803 216 167.803 217.6 164.203C219.3 160.603 221.7 157.403 224.6 154.803C230.4 149.603 238.1 146.903 245.7 147.003ZM245.7 147.403C242 147.503 238.3 148.303 234.9 149.803C231.6 151.403 228.6 153.603 226.2 156.303C221.3 161.703 218.9 168.903 219 175.803C219.1 182.803 221.9 189.703 226.8 194.703C229.2 197.203 232.2 199.303 235.4 200.703C238.6 202.103 242.1 202.803 245.7 202.903C252.8 203.003 259.9 200.203 265 195.203C270.2 190.203 273.2 183.103 273.3 175.803C273.5 168.503 270.7 161.203 265.6 155.803C263 153.103 259.9 150.903 256.5 149.503C253.1 148.103 249.4 147.303 245.7 147.403Z" fill="#424069"/>
<path d="M259.602 163.765C258.159 163.047 256.544 164.433 255.6 165.243C253.431 167.188 251.598 169.434 249.547 171.479C247.269 173.725 245.164 175.979 242.822 178.175C241.488 179.402 240.045 180.729 239.156 182.265C237.159 180.479 235.435 178.533 233.212 176.956C231.614 175.82 228.946 175.002 229.001 177.707C229.11 181.23 232.504 185.012 235 187.416C236.052 188.435 237.441 189.512 239.056 189.562C240.998 189.662 243.004 187.516 244.165 186.339C246.216 184.294 247.886 181.998 249.774 179.903C252.215 177.148 254.72 174.434 257.107 171.629C258.604 169.893 263.323 165.602 259.602 163.765Z" fill="white"/>
<path d="M60.6132 195.347L79.5463 182.683L72.8246 160.946L68.7864 171.91L53.8005 162.003L46.637 182.7L64.4201 184.445L60.6132 195.347Z" fill="#F8B64C"/>
<path d="M20.856 40.2739C22.4651 40.2739 23.9504 40.5195 25.3119 41.0106C26.6115 41.5018 27.7874 42.1771 28.7157 43.098C29.644 43.9575 30.3866 45.0012 30.8817 46.229C31.3768 47.4569 31.6863 48.7462 31.6863 50.1582C31.6863 51.693 31.3768 53.3507 30.758 55.0697C32.9859 53.412 35.3376 52 37.9369 50.8335C40.4743 49.7285 43.0735 48.8689 45.7347 48.255C48.3339 47.7025 50.9332 47.3955 53.4087 47.3955C55.8842 47.3955 58.174 47.7025 60.2163 48.255C62.4442 44.6942 64.6103 40.9492 66.7145 37.1429C68.8186 33.3365 70.7371 29.4073 72.5319 25.4782C74.3266 21.549 75.9357 17.5584 77.421 13.6293C78.9062 9.63872 80.0821 5.70956 81.1342 1.84179V1.90319C81.1961 1.65762 81.3198 1.47344 81.5055 1.28926C81.6912 1.10508 81.8768 0.920897 82.1244 0.859504C82.5576 0.245573 83.3002 0 84.4142 0C86.0852 0 87.4467 0.245573 88.4988 0.798111C89.5509 1.35065 90.3554 2.02597 90.9743 2.94687C91.5931 3.86777 92.0263 4.85006 92.2739 6.07792C92.5214 7.24439 92.6452 8.47225 92.6452 9.76151C92.6452 10.1299 92.6452 10.5596 92.6452 11.1122C92.6452 11.6647 92.6452 12.0945 92.5833 12.5242C92.2739 15.0413 91.8407 17.8654 91.2837 20.9965C90.7267 24.1275 90.046 27.4427 89.3033 30.9422C88.5607 34.4416 87.7561 38.0638 86.8897 41.7473C86.0233 45.4309 85.1569 49.1145 84.2286 52.7981C87.1991 52.7367 90.046 51.8772 92.8309 50.2196C95.6158 48.562 98.2151 46.1063 100.691 42.791C101.309 42.2999 101.805 42.1771 102.176 42.4227C102.547 42.6682 102.795 43.098 102.919 43.7119C101.433 45.9221 99.886 47.8253 98.3388 49.2987C96.7917 50.7721 95.2445 52 93.6354 52.8595C92.0263 53.7804 90.3554 54.4557 88.6844 54.8855C87.0135 55.3152 85.2187 55.6222 83.4859 55.8064C82.9908 58.3849 82.6195 61.1476 82.4338 64.0945C82.1863 67.0413 82.0625 69.9882 82.0625 72.9351C82.0625 76.3731 82.31 79.6883 82.7433 82.9421C83.1765 86.196 83.9191 89.0815 85.0331 91.5986C86.0852 94.1157 87.5086 96.1417 89.3033 97.6765C91.098 99.2113 93.326 100.009 95.9871 100.009C97.0392 100.009 98.277 99.8253 99.6385 99.5183C101 99.2113 102.423 98.7202 103.847 98.0449C104.899 98.4132 105.456 98.843 105.456 99.3341C105.456 99.5797 105.394 99.8867 105.208 100.255C105.023 100.623 104.775 100.992 104.466 101.299C102.238 102.281 100.072 102.956 98.0913 103.386C96.1109 103.816 94.1924 104 92.2739 104C89.7365 104 87.4467 103.57 85.4044 102.711C83.3621 101.851 81.5674 100.623 80.0821 99.0272C78.5349 97.4309 77.2353 95.5891 76.1213 93.4404C75.0073 91.2916 74.1409 88.9587 73.4602 86.3802C72.7794 83.863 72.2843 81.1618 71.9749 78.3377C71.6654 75.5136 71.4798 72.6281 71.4798 69.7426C71.4798 67.3483 71.6036 64.8926 71.7892 62.3754C71.9749 59.8583 72.2843 57.4026 72.7175 55.0083C70.8609 54.7013 69.0043 54.2715 67.2714 53.8418C65.5386 53.412 63.6201 52.9209 61.6397 52.3684C58.3597 57.4026 54.894 62.1913 51.1189 66.7958C47.3437 71.4002 43.5067 75.3908 39.6078 78.7674C38.3082 79.8725 37.0086 80.9162 35.6471 81.9599C34.2855 83.0035 32.8621 83.863 31.3768 84.6612C29.8915 85.4593 28.2825 86.0732 26.6115 86.5643C24.9406 87.0555 23.1458 87.3011 21.2892 87.3011C18.5662 87.3011 15.905 86.8099 13.3676 85.7662C10.8303 84.7225 8.60233 83.2491 6.62194 81.3459C4.64154 79.4427 3.15625 77.1098 1.98039 74.4085C0.556985 71.7686 0 68.6989 0 65.3837C0 62.4982 0.495098 59.6128 1.42341 56.6659C2.35172 53.719 3.71323 50.9563 5.50797 48.562C7.3027 46.1677 9.46875 44.1417 12.068 42.6068C14.6673 41.072 17.576 40.2739 20.856 40.2739ZM57.8027 51.5702C56.5031 51.2633 55.2034 51.0177 54.0276 50.8949C52.8517 50.7721 51.6759 50.7107 50.6238 50.7107C46.1679 50.7107 41.9596 51.7544 38.1225 53.9032C34.2236 56.052 30.6342 58.9374 27.2923 62.6824C27.0447 62.8052 26.7972 62.928 26.4877 63.0508C26.1783 63.1736 25.9308 63.2349 25.6832 63.2349C25.25 63.2349 24.8168 63.1122 24.5074 62.8666C24.136 62.621 24.0123 62.2527 24.0123 61.7615C24.693 60.9634 25.3119 60.1653 25.9308 59.2444C26.5496 58.3235 27.1066 57.4026 27.5398 56.3589C27.973 55.3152 28.2825 54.2715 28.53 53.2279C28.7157 52.1228 28.7157 51.0791 28.53 49.974C27.9111 48.3778 27.1066 47.2727 26.1164 46.5974C25.1262 45.9221 24.136 45.5537 23.2696 45.4923C21.8462 45.4309 20.4228 45.9835 19.0613 47.0272C17.6379 48.0708 16.3382 49.4829 15.1005 51.2633C13.8627 53.0437 12.7488 55.0083 11.8205 57.2798C10.8922 59.5514 10.2114 61.8229 9.77819 64.1558C9.40686 66.1204 9.34498 68.2078 9.65441 70.5407C9.90196 72.8737 10.5827 75.0224 11.5729 77.1098C12.5631 79.1972 13.9246 80.8548 15.6575 82.2054C17.3903 83.5561 19.5564 84.2928 22.0938 84.2928C23.2077 84.2928 24.3836 84.1086 25.4975 83.8017C26.6115 83.4947 27.7874 83.0649 29.087 82.451C31.2531 81.2845 33.481 79.7497 35.8327 77.7851C38.1844 75.8205 40.598 73.4876 43.0735 70.8477C45.549 68.2078 48.0245 65.2609 50.5 62.0685C52.9755 58.876 55.451 55.438 57.8646 51.8772L57.8027 51.5702ZM80.0821 16.5762C78.1017 21.4262 75.6881 26.706 72.8413 32.2928C69.9945 37.8796 66.8382 43.5891 63.3725 49.3601C65.0435 49.8512 66.6526 50.3424 68.1998 50.7721C69.7469 51.2019 71.356 51.6316 73.027 52C74.6979 44.5714 76.1213 37.8796 77.3591 31.9858C78.5968 26.0921 79.587 20.9965 80.3297 16.6989L80.0821 16.5762Z" fill="#F8B64C"/>
<path d="M139.184 21.3647C139.123 22.347 138.999 23.3293 138.751 24.4344C138.566 25.5395 138.318 26.7059 138.071 27.9338C139.68 27.9338 141.227 27.9952 142.774 28.1794C144.259 28.3636 145.683 28.7319 146.92 29.2231C148.22 29.7142 149.334 30.4509 150.324 31.3104C151.314 32.2313 152.119 33.3364 152.738 34.7484H152.676C152.8 35.0554 152.738 35.3624 152.49 35.6693C152.243 35.9763 151.871 36.0991 151.438 35.9149C149.891 34.3801 147.972 33.3364 145.745 32.7839C143.517 32.2313 141.103 31.9857 138.504 31.9857H137.142C136.771 33.6434 136.4 35.301 135.966 36.9586C135.533 38.6162 135.1 40.2738 134.667 41.9928L133.615 46.1676L133.429 46.9043C133.181 47.8866 132.81 49.1758 132.439 50.7721C132.006 52.4297 131.634 54.1487 131.263 56.0519C130.892 57.9551 130.52 59.8582 130.273 61.7614C130.025 63.6646 129.84 65.3836 129.84 66.9185C129.84 67.9621 129.901 68.883 130.087 69.6811C130.273 70.4793 130.582 71.0318 131.015 71.2774C131.325 71.5229 131.882 71.5229 132.624 71.3388C133.367 71.0932 134.295 70.602 135.347 69.8653C136.461 68.9444 137.637 67.778 138.689 66.3659C139.803 64.9539 140.794 63.419 141.784 61.8228C142.774 60.2266 143.64 58.569 144.507 56.9728C145.311 55.3151 146.054 53.8417 146.673 52.5525C147.168 51.5088 147.663 50.6493 148.096 49.8512C148.529 49.053 148.963 48.4391 149.334 47.8866C149.396 47.8252 149.582 47.8252 149.953 47.8252C150.572 47.8252 150.943 48.1935 151.252 48.8689L149.272 52.9822H149.334C148.158 55.4379 146.858 58.0164 145.435 60.7177C144.012 63.419 142.526 65.9362 140.917 68.2077C139.308 70.4793 137.575 72.3824 135.781 73.8559C133.986 75.3293 132.067 76.066 130.087 76.066C126.807 76.066 124.517 75.2679 123.218 73.6717C121.918 72.0755 121.299 69.8039 121.299 66.9185C121.299 66.4887 121.299 66.1203 121.299 65.6906C121.299 65.2608 121.361 64.8925 121.361 64.4013C121.485 63.1735 121.732 61.4545 122.165 59.3057C122.599 57.1569 123.032 54.7626 123.589 52.1841C124.146 49.6056 124.765 46.9043 125.446 44.0188C126.126 41.1947 126.745 38.432 127.364 35.7921L128.169 32.6611C126.931 32.7839 125.693 32.8453 124.579 32.9066C123.403 32.968 122.351 33.0294 121.237 33.0294C119.009 33.0294 117.029 32.7839 115.296 32.2313C113.625 31.6788 112.387 30.6351 111.707 29.1617C111.645 28.9775 111.583 28.7933 111.521 28.5477C111.459 28.3022 111.521 28.118 111.583 27.9338C111.645 27.7496 111.768 27.6882 112.016 27.6268C112.202 27.5654 112.511 27.6268 112.821 27.8724L112.759 27.811C113.873 28.3022 115.048 28.6091 116.41 28.7933C117.71 28.9775 119.071 29.0389 120.495 29.0389C121.794 29.0389 123.218 28.9775 124.765 28.8547C126.25 28.7319 127.735 28.6091 129.221 28.4249C129.716 26.092 130.211 24.066 130.52 22.347C130.892 20.628 131.139 19.3388 131.201 18.602C131.263 17.9881 131.201 17.4356 131.201 17.0058C131.139 16.5761 131.077 16.2077 131.015 15.8393C130.953 15.6552 130.953 15.471 130.953 15.2868C130.953 15.1026 130.953 14.9798 130.953 14.7957C131.015 14.3045 131.263 13.9362 131.634 13.752C132.006 13.5678 132.501 13.5064 132.996 13.5064C134.419 13.5064 135.595 13.752 136.461 14.1817C137.328 14.6115 138.009 15.2254 138.442 15.9007C138.875 16.6375 139.184 17.4356 139.308 18.3565C139.246 19.4615 139.246 20.4438 139.184 21.3647Z" fill="#F8B64C"/>
<path d="M146.487 53.2892L150.324 45.7379C149.086 45.6151 147.972 45.3081 147.106 44.6942C146.178 44.1417 145.435 43.4049 144.878 42.5454C144.321 41.6859 143.888 40.7036 143.64 39.66C143.393 38.6163 143.331 37.5112 143.455 36.4061C143.578 35.2396 143.95 34.0118 144.507 32.7839C145.064 31.5561 145.744 30.3896 146.549 29.3459C147.354 28.3022 148.344 27.5041 149.458 26.8288C150.572 26.1535 151.809 25.8465 153.109 25.8465C154.78 25.8465 155.956 26.3376 156.637 27.2585C157.317 28.2408 157.627 29.6529 157.503 31.5561C157.379 32.5997 157.194 33.6434 156.884 34.8099C156.575 35.9764 156.265 37.0201 155.956 38.0023C155.646 38.9846 155.275 39.9055 154.966 40.7036C154.656 41.5018 154.409 42.1157 154.285 42.5454C155.151 42.791 156.018 42.9138 156.884 42.9138C157.689 42.9752 158.493 42.9752 159.236 42.9752C160.04 42.9752 160.721 42.9752 161.34 43.0366C161.959 43.098 162.454 43.2208 162.887 43.4663C163.32 43.7119 163.63 44.0803 163.816 44.51C164.001 45.0012 164.063 45.6765 164.001 46.536C163.939 47.1499 163.816 47.7639 163.692 48.3778L163.135 50.6493C162.825 51.9386 162.454 53.3506 162.083 54.8241C161.711 56.2975 161.402 57.7709 161.093 59.183C160.783 60.6564 160.474 62.0071 160.226 63.3577C159.979 64.647 159.793 65.8134 159.669 66.7957C159.607 67.9622 159.669 68.9445 159.917 69.7426C160.164 70.5407 160.474 70.9705 160.907 71.0319C161.588 70.7863 162.33 70.1724 163.197 69.3129C164.063 68.392 164.93 67.3483 165.858 66.059C166.786 64.7698 167.714 63.3577 168.643 61.8229C169.633 60.2881 170.499 58.7532 171.366 57.2798C172.232 55.745 173.037 54.2715 173.779 52.8595C174.522 51.4474 175.141 50.2196 175.698 49.1759L175.884 48.8075H175.822C176.007 48.4392 176.193 48.1322 176.379 47.948C176.564 47.7025 176.812 47.6411 177.245 47.6411C177.74 47.6411 178.173 48.0094 178.607 48.7461L177.988 49.9126C177.493 50.9563 176.874 52.1228 176.193 53.4734C175.512 54.8241 174.77 56.2361 173.965 57.7709C173.161 59.2444 172.294 60.7792 171.428 62.314C170.499 63.8489 169.633 65.3223 168.705 66.7343C167.776 68.1464 166.848 69.3742 165.92 70.5407C164.991 71.7072 164.063 72.6281 163.259 73.3034C162.516 73.9173 161.649 74.4699 160.597 74.8382C159.607 75.268 158.555 75.4522 157.503 75.4522C156.513 75.4522 155.708 75.2066 155.089 74.6541C154.409 74.1015 153.852 73.4262 153.48 72.5053C153.047 71.5844 152.738 70.6021 152.552 69.3742C152.366 68.2078 152.305 66.9799 152.305 65.6907C152.305 65.2609 152.305 64.8925 152.305 64.4628C152.305 64.033 152.366 63.6033 152.366 63.2349C152.428 62.314 152.614 61.0862 152.923 59.5513C153.233 58.0165 153.542 56.4203 153.975 54.7627C154.409 53.1051 154.78 51.5088 155.275 49.974C155.77 48.4392 156.142 47.1499 156.575 46.1676L152.8 45.9834C152.181 47.2727 151.5 48.562 150.881 49.9126C150.2 51.2019 149.581 52.4911 148.963 53.7804L146.487 53.2892ZM149.891 39.5372C149.829 40.2125 149.891 40.8264 150.138 41.3176C150.386 41.8087 150.881 42.1157 151.624 42.2385C151.748 41.9315 151.995 41.379 152.305 40.6422C152.614 39.9055 152.923 39.1074 153.233 38.2479C153.542 37.327 153.852 36.4675 154.099 35.5466C154.347 34.6257 154.532 33.8276 154.594 33.0909C154.656 32.2928 154.594 31.9244 154.409 31.9244C154.099 31.9244 153.728 32.17 153.233 32.6611C152.738 33.1523 152.243 33.7662 151.809 34.5643C151.314 35.3624 150.881 36.1605 150.51 37.0814C150.2 37.9409 149.953 38.7391 149.891 39.5372Z" fill="#F8B64C"/>
<path d="M178.173 39.4758C178.297 38.8618 178.359 38.3707 178.359 37.941C178.359 37.5112 178.421 37.2042 178.483 36.8973C178.607 36.4061 178.916 36.1605 179.349 36.0378C179.783 35.9764 180.278 35.9764 180.773 36.0992C182.32 36.6517 183.434 37.2656 184.177 37.941C184.857 38.6163 185.229 39.4758 185.229 40.5195C185.229 41.0106 185.167 41.6245 185.043 42.2385C184.919 42.8524 184.734 43.5277 184.486 44.2644C184.115 45.4309 183.681 46.843 183.248 48.5006C182.815 50.1582 182.32 51.9386 181.887 53.7804C181.454 55.6222 181.02 57.464 180.711 59.3058C180.34 61.1476 180.092 62.8052 179.906 64.34C179.844 64.7084 179.844 65.0767 179.844 65.5065C179.844 65.9362 179.844 66.3046 179.844 66.5502C179.844 67.8394 179.968 68.8831 180.216 69.6812C180.463 70.4793 180.897 70.9091 181.515 70.9091C182.01 70.9091 182.629 70.6021 183.31 69.9882C183.991 69.3742 184.734 68.5147 185.476 67.5324C186.281 66.4888 187.023 65.3223 187.89 64.033C188.694 62.7438 189.499 61.3931 190.303 59.9811C191.108 58.569 191.912 57.157 192.655 55.8064C193.398 54.4557 194.079 53.1665 194.635 52.0614C195.131 51.2019 195.502 50.4038 195.873 49.7284C196.245 49.0531 196.554 48.5006 196.863 48.0708C197.235 47.8866 197.482 47.8252 197.668 47.8252C198.163 47.8252 198.596 48.1936 199.029 48.9303L198.411 50.0968C197.668 51.5702 196.863 53.2278 195.935 55.0696C195.007 56.9114 194.017 58.8146 192.903 60.6564C191.789 62.5596 190.675 64.4014 189.499 66.1818C188.323 67.9622 187.147 69.5584 185.971 70.9705C184.795 72.3825 183.62 73.4876 182.444 74.3471C181.268 75.2066 180.154 75.6363 179.04 75.6363C177.74 75.6363 176.688 75.3908 175.822 74.8382C174.955 74.3471 174.275 73.6104 173.718 72.7509C173.161 71.83 172.789 70.7863 172.604 69.6198C172.356 68.4533 172.294 67.1641 172.294 65.752C172.294 65.3223 172.294 64.8925 172.294 64.4014C172.294 63.9716 172.356 63.4805 172.356 63.0508C172.666 59.4899 173.284 55.9291 174.213 52.4911C175.203 49.0531 176.255 45.5537 177.369 42.0543L178.173 39.4758ZM188.199 25.3554C188.632 26.0921 188.88 26.7674 189.066 27.3813C189.251 27.9953 189.313 28.5478 189.251 29.0389C189.128 30.2668 188.632 31.2491 187.642 31.9244C186.652 32.5997 185.662 32.9681 184.672 32.9681C183.805 32.9681 183.001 32.5997 182.32 31.9244C181.639 31.1877 181.33 30.0826 181.454 28.5478C181.515 27.9339 181.639 27.3813 181.825 26.7674C182.072 26.1535 182.32 25.6009 182.629 25.1712C182.939 24.68 183.372 24.3117 183.805 24.0047C184.238 23.6977 184.734 23.575 185.291 23.575C185.786 23.575 186.281 23.6977 186.776 24.0047C187.271 24.1889 187.766 24.68 188.199 25.3554Z" fill="#F8B64C"/>
<path d="M215.306 15.0413C216.234 15.0413 216.977 15.3483 217.596 15.9008C218.214 16.4534 218.71 17.1901 219.081 17.9882C219.452 18.7863 219.7 19.7072 219.824 20.6895C219.947 21.6718 219.947 22.5313 219.947 23.3294C219.7 25.7851 219.081 28.2408 218.029 30.6966C216.977 33.1523 215.677 35.5466 214.13 37.8796C212.583 40.2125 210.85 42.4227 208.993 44.51C207.137 46.5974 205.218 48.562 203.3 50.281C202.866 51.7544 202.557 53.0437 202.309 54.2102C202.062 55.3766 201.814 56.7273 201.567 58.1393C201.319 59.6128 201.134 61.0248 200.948 62.4982C200.886 62.9894 200.824 63.4191 200.824 63.8489C200.824 64.2786 200.824 64.7084 200.824 65.0767C200.824 66.8571 201.072 68.3306 201.567 69.5584C202.062 70.7863 202.866 71.4002 204.104 71.4002C205.589 71.4002 207.137 70.7249 208.622 69.3743C210.107 68.0236 211.531 66.366 212.892 64.4014C214.254 62.4368 215.491 60.3495 216.605 58.1393C217.719 55.9292 218.771 53.9646 219.576 52.2456C220.009 51.2633 220.442 50.4038 220.814 49.6671C221.185 48.9303 221.494 48.4392 221.68 48.1322C221.804 48.0094 221.99 47.9481 222.175 47.8867C222.361 47.8253 222.485 47.8253 222.608 47.8253C222.918 47.8253 223.227 47.9481 223.413 48.1322C223.599 48.3164 223.784 48.562 223.97 48.8689L222.113 52.6753H222.175C221.371 54.3329 220.566 56.0519 219.7 57.8324C218.833 59.6128 217.905 61.3932 216.915 63.1122C215.925 64.8312 214.873 66.4888 213.82 68.085C212.706 69.6812 211.593 71.0319 210.417 72.2597C209.241 73.4262 208.003 74.4085 206.765 75.0838C205.466 75.7592 204.166 76.1275 202.805 76.1275C201.01 76.1275 199.524 75.7591 198.349 74.961C197.173 74.1629 196.244 73.1806 195.564 71.9528C194.883 70.7249 194.388 69.3129 194.14 67.778C193.893 66.2432 193.707 64.7084 193.707 63.1122C193.707 62.621 193.707 62.0685 193.707 61.5773C193.707 61.0862 193.769 60.595 193.831 60.1039C193.955 58.8146 194.14 57.157 194.512 55.1311C194.821 53.1665 195.254 50.9563 195.811 48.6234C196.306 46.229 196.925 43.7733 197.668 41.2562C198.411 38.6777 199.215 36.1606 200.143 33.6434C201.072 31.1263 202.062 28.7934 203.176 26.5218C204.29 24.2503 205.466 22.2857 206.765 20.5667C208.065 18.8477 209.426 17.497 210.85 16.5148C212.088 15.5325 213.635 15.0413 215.306 15.0413ZM216.048 19.4002C215.43 19.4002 214.687 20.0756 213.759 21.4262C212.83 22.7769 211.84 24.6187 210.788 26.9516C209.736 29.2845 208.622 32.0472 207.508 35.2397C206.394 38.4321 205.342 41.8701 204.414 45.6151C205.218 44.9398 206.27 43.8347 207.57 42.2999C208.931 40.7651 210.293 38.9847 211.654 37.0201C213.016 34.9941 214.254 32.9067 215.306 30.6352C216.358 28.3636 216.977 26.2149 217.162 24.1275C217.224 23.6364 217.224 23.1452 217.224 22.5927C217.224 22.0401 217.162 21.549 217.1 21.0579C217.039 20.5667 216.853 20.1983 216.667 19.8914C216.543 19.5844 216.296 19.4002 216.048 19.4002Z" fill="#F8B64C"/>
<path d="M229.54 49.7899C230.035 49.176 230.468 48.5007 230.839 47.8253C231.273 47.15 231.706 46.4133 232.201 45.6766C233.191 44.1417 234.243 42.6069 235.295 41.0107C236.347 39.4759 237.523 38.0638 238.699 36.7746C239.875 35.4853 241.113 34.503 242.412 33.7049C243.712 32.9068 245.135 32.5384 246.621 32.5384C247.611 32.5384 248.477 32.7226 249.158 33.091C249.839 33.4593 250.396 33.9505 250.767 34.5644C251.138 35.1783 251.386 35.9151 251.51 36.7132C251.634 37.5113 251.634 38.4322 251.51 39.4145C251.324 41.4405 250.829 43.712 250.025 46.2291C249.22 48.7462 248.415 51.2634 247.549 53.8419C246.683 56.2362 245.94 58.5691 245.197 60.8407C244.517 63.1122 244.021 65.0768 243.898 66.673C243.898 67.0414 243.898 67.4711 243.898 67.9623C243.898 68.4534 243.96 68.9446 244.021 69.3743C244.083 69.8041 244.207 70.1724 244.393 70.4794C244.578 70.7864 244.826 70.9092 245.135 70.9092C245.754 70.9092 246.497 70.418 247.363 69.3743C248.292 68.392 249.22 67.1028 250.272 65.568C251.324 64.0331 252.376 62.3755 253.428 60.5951C254.48 58.8147 255.471 57.0957 256.337 55.4995C257.203 53.9033 257.946 52.4912 258.565 51.3861C259.184 50.2811 259.493 49.6057 259.617 49.4216L259.803 49.0532H259.741C259.926 48.6848 260.112 48.3779 260.298 48.1937C260.483 47.9481 260.793 47.8867 261.226 47.8867C261.536 47.8867 261.783 48.0095 262.031 48.1937C262.278 48.3779 262.464 48.6235 262.588 48.9304L260.917 52.307C260.174 53.7191 259.369 55.3153 258.503 57.0343C257.637 58.7533 256.646 60.4723 255.656 62.1913C254.666 63.9103 253.614 65.568 252.5 67.1642C251.386 68.7604 250.334 70.1724 249.22 71.4003C248.106 72.6282 246.992 73.6105 245.816 74.3472C244.64 75.0839 243.526 75.4523 242.412 75.4523C241.113 75.4523 240.061 75.2681 239.194 74.8997C238.328 74.5314 237.647 74.0402 237.09 73.3649C236.533 72.6896 236.162 71.8914 235.976 70.9706C235.729 70.0497 235.667 69.0674 235.667 67.9623C235.667 67.7167 235.667 67.4098 235.667 67.1642C235.667 66.8572 235.667 66.6116 235.729 66.3661C235.914 64.954 236.224 63.4192 236.595 61.823C237.028 60.2268 237.461 58.5691 238.018 56.8501C238.575 55.1925 239.132 53.5349 239.689 51.8773C240.308 50.2197 240.865 48.7462 241.422 47.2728C242.165 45.3082 242.846 43.5278 243.403 41.993C243.96 40.4582 244.269 39.2917 244.393 38.555C244.455 37.8796 244.269 37.5727 243.898 37.5727C243.217 37.5727 242.474 37.941 241.608 38.6164C240.741 39.3531 239.813 40.274 238.823 41.4404C237.833 42.6069 236.843 43.8962 235.852 45.3082C234.862 46.7203 233.872 48.1937 232.944 49.6057C232.015 51.0792 231.149 52.4298 230.406 53.7191C229.664 55.0083 228.983 56.052 228.488 56.9115V56.8501L227.621 58.385H227.683C227.064 59.8584 226.507 61.5774 226.074 63.4806C225.641 65.4452 225.331 67.2256 225.146 69.006C225.084 70.2952 225.084 71.4003 225.208 72.3212C225.331 73.2421 225.455 73.9788 225.579 74.47C225.703 74.7769 225.765 75.0839 225.765 75.2681C225.765 75.7592 225.332 76.0662 224.465 76.0662C223.165 76.0662 222.051 75.8206 221.185 75.2681C220.319 74.7155 219.638 74.0402 219.143 73.1807C218.648 72.3212 218.276 71.3389 218.091 70.2338C217.905 69.1288 217.781 68.0237 217.781 66.8572C217.781 66.4889 217.781 66.1205 217.781 65.7521C217.781 65.3838 217.843 65.0154 217.843 64.5857C217.967 63.2964 218.214 61.6388 218.586 59.6128C218.957 57.5868 219.39 55.3767 219.947 52.9824C220.504 50.588 221.061 48.0095 221.68 45.3696C222.299 42.6683 222.918 40.0284 223.537 37.4499C224.032 35.3625 224.527 33.3366 224.96 31.372C225.455 29.4074 225.827 27.627 226.198 25.9694C226.569 24.3118 226.817 22.8997 227.064 21.6719C227.312 20.444 227.436 19.5231 227.559 18.8478C227.621 18.2338 227.559 17.6813 227.559 17.2515C227.498 16.8218 227.436 16.4534 227.374 16.0851C227.312 15.9009 227.312 15.7167 227.312 15.5325C227.312 15.3484 227.312 15.2256 227.312 15.0414C227.374 14.5502 227.559 14.1819 227.993 13.9977C228.426 13.8135 228.859 13.7521 229.354 13.7521C230.778 13.7521 231.892 13.9977 232.758 14.4275C233.624 14.8572 234.305 15.4711 234.738 16.2079C235.172 16.9446 235.481 17.7427 235.605 18.6636C235.729 19.5845 235.79 20.5054 235.667 21.4263C235.605 21.9788 235.419 22.9611 235.11 24.3118C234.862 25.7238 234.491 27.32 234.058 29.1618C233.624 31.0036 233.191 32.9682 232.696 35.117C232.201 37.2043 231.706 39.2917 231.273 41.2563L229.54 49.7899Z" fill="#F8B64C"/>
<path d="M287.033 49.9127C286.971 50.0354 286.724 50.1582 286.414 50.2196C286.043 50.3424 285.795 50.4038 285.672 50.4038C285.238 50.4038 284.867 50.1582 284.496 49.7285C284.62 49.2987 284.743 48.9304 284.805 48.6234C284.867 48.255 284.929 47.8867 284.991 47.5183C285.053 46.5974 284.991 45.6151 284.805 44.6328C284.62 43.6506 284.31 42.7297 283.877 41.9315C283.444 41.1334 282.887 40.4581 282.144 39.9056C281.463 39.353 280.597 39.1075 279.607 39.1075C278.307 39.1075 277.007 39.5986 275.646 40.6423C274.346 41.6246 273.047 42.9752 271.809 44.5715C270.571 46.1677 269.457 47.9481 268.343 49.9127C267.291 51.8772 266.301 53.8418 265.496 55.8064C264.692 57.771 264.011 59.6128 263.454 61.3318C262.959 63.0508 262.65 64.4628 262.588 65.5065C262.526 65.9977 262.526 66.5502 262.588 67.1641C262.588 67.7781 262.711 68.2692 262.897 68.7604C263.083 69.2515 263.33 69.6813 263.702 69.9882C264.073 70.2952 264.568 70.4794 265.249 70.4794C266.363 70.4794 267.601 69.9268 268.9 68.7604C270.2 67.5939 271.438 66.1818 272.613 64.5242C273.789 62.8666 274.903 61.1476 275.955 59.3058C277.007 57.464 277.874 55.9292 278.555 54.5785C278.678 54.1488 278.864 53.719 279.112 53.1665C279.359 52.614 279.421 52 279.359 51.3247C279.297 50.8336 279.483 50.4652 279.978 50.281C280.473 50.0968 280.968 50.0354 281.525 49.9741C283.691 50.1582 285.238 50.6494 286.105 51.5089C286.971 52.307 287.466 53.2893 287.59 54.4558C287.714 55.6222 287.59 56.9115 287.219 58.2621C286.847 59.6128 286.6 60.902 286.414 62.0685C286.352 62.3141 286.29 62.7438 286.229 63.3578C286.167 63.9717 286.043 64.5856 285.981 65.2609C285.919 65.9363 285.857 66.673 285.795 67.3483C285.733 68.085 285.795 68.6376 285.857 69.1287C285.919 69.6199 286.105 69.9268 286.352 70.0496C286.6 70.1724 286.971 70.0496 287.404 69.6813C288.271 68.8218 289.261 67.6553 290.251 66.2432C291.241 64.8312 292.232 63.3578 293.222 61.7615C294.212 60.1653 295.14 58.5691 296.069 56.9115C296.997 55.2539 297.802 53.7804 298.544 52.4298C298.977 51.5703 299.349 50.7108 299.782 49.9127C300.215 49.1145 300.586 48.5006 300.834 47.9481C301.082 47.8253 301.391 47.7639 301.639 47.7639C301.948 47.7639 302.257 47.8867 302.443 48.0709C302.629 48.255 302.814 48.5006 303 48.8076L302.443 50.0354C301.948 51.0791 301.329 52.2456 300.648 53.5962C299.968 54.9469 299.225 56.3589 298.42 57.8938C297.616 59.3672 296.749 60.902 295.883 62.4369C294.955 63.9717 294.088 65.4451 293.16 66.8572C292.232 68.2692 291.303 69.4971 290.375 70.6635C289.447 71.83 288.518 72.7509 287.714 73.4262C286.971 74.0402 286.105 74.5927 285.053 74.9611C284.001 75.3908 283.01 75.575 282.02 75.575C280.721 75.575 279.669 75.0839 278.926 74.163C278.183 73.2421 277.626 72.137 277.317 70.7863C276.946 69.4971 276.76 68.1464 276.76 66.7344C276.698 65.3223 276.76 64.2173 276.946 63.2964C276.946 63.235 276.946 63.1736 276.946 63.1736C276.946 63.1736 276.946 62.9894 277.007 62.7438C276.017 64.4014 274.903 65.9977 273.727 67.5325C272.551 69.0673 271.252 70.4794 269.89 71.7072C268.529 72.9351 267.105 73.9174 265.682 74.6541C264.197 75.3908 262.711 75.7592 261.164 75.7592C259.741 75.7592 258.503 75.5136 257.513 74.9611C256.523 74.4699 255.718 73.7946 255.099 72.9351C254.48 72.0756 254.109 71.0933 253.8 69.9882C253.552 68.8831 253.428 67.6553 253.428 66.4274C253.428 66.1818 253.428 65.9363 253.428 65.6293C253.428 65.3223 253.428 65.0768 253.49 64.8312C253.738 62.9894 254.171 60.9634 254.914 58.7533C255.656 56.5431 256.585 54.2716 257.699 51.9386C258.813 49.6671 260.112 47.3955 261.597 45.2468C263.083 43.098 264.692 41.1948 266.425 39.4758C268.158 37.8182 270.014 36.4676 271.995 35.4853C273.975 34.503 275.955 33.9504 278.059 33.9504C279.669 33.9504 281.154 34.3188 282.392 35.1169C283.629 35.915 284.681 36.8973 285.548 38.1252C286.414 39.353 287.033 40.7037 287.404 42.2385C287.776 43.7733 287.961 45.3082 287.838 46.843C287.652 47.9481 287.404 48.9304 287.033 49.9127Z" fill="#F8B64C"/>
<defs>
<filter id="filter0_d" x="795" y="14" width="117" height="126" filterUnits="userSpaceOnUse" color-interpolation-filters="sRGB">
<feFlood flood-opacity="0" result="BackgroundImageFix"/>
<feColorMatrix in="SourceAlpha" type="matrix" values="0 0 0 0 0 0 0 0 0 0 0 0 0 0 0 0 0 0 127 0"/>
<feOffset/>
<feGaussianBlur stdDeviation="2"/>
<feColorMatrix type="matrix" values="0 0 0 0 0 0 0 0 0 0 0 0 0 0 0 0 0 0 0.25 0"/>
<feBlend mode="normal" in2="BackgroundImageFix" result="effect1_dropShadow"/>
<feBlend mode="normal" in="SourceGraphic" in2="effect1_dropShadow" result="shape"/>
</filter>
</defs>
</svg>
